# xmcd CD database file
#
# Track frame offsets:
#	150
#	27605
#	46260
#	61042
#	81750
#	96830
#	107960
#	122617
#	151837
#	173427
#
# Disc length: 2636 seconds
#
# Revision: 2
# Processed by: cddbd v1.5.1PL0 Copyright (c) Steve Scherf et al.
# Submitted via: CDex 1.40Release
#
DISCID=720a4a0a
DTITLE=John Mayall - New Year, New Band, New Company
DYEAR=1975
DGENRE=Blues
TTITLE0=Sitting On The Outside
TTITLE1=Can't Get Home
TTITLE2=Step In The Sun
TTITLE3=To Match The Wind
TTITLE4=Sweet Scorpio
TTITLE5=Driving On
TTITLE6=Taxman Blues
TTITLE7=So Much To Do
TTITLE8=My Train Time
TTITLE9=Respectfully Yours
EXTD=YEAR: 1975 ID3G: 0
EXTT0=
EXTT1=
EXTT2=
EXTT3=
EXTT4=
EXTT5=
EXTT6=
EXTT7=
EXTT8=
EXTT9=
PLAYORDER=
